<?xml version="1.0" encoding="UTF-8" standalone="no"?><!DOCTYPE svg PUBLIC "-//W3C//DTD SVG 1.1//EN" "http://www.w3.org/Graphics/SVG/1.1/DTD/svg11.dtd"><svg width="100%" height="100%" viewBox="0 0 3880 3880" version="1.1" xmlns="http://www.w3.org/2000/svg" xmlns:xlink="http://www.w3.org/1999/xlink" xml:space="preserve" xmlns:serif="http://www.serif.com/" style="fill-rule:evenodd;clip-rule:evenodd;stroke-linejoin:round;stroke-miterlimit:2;"><g id="Background"><path d="M1706.25,0l162.5,-0c131.857,35.136 202.467,8.597 369.819,178.093c216.494,219.268 -20.687,366.848 0.127,428.488c53.542,158.558 296.234,98.254 313.436,97.486c153.062,-6.829 258.968,-84.676 455.115,101.047c298.754,282.876 336.021,240.891 418.674,306.852c150.519,120.121 151.754,215.912 152.565,219.002c4.638,17.669 -6.3,88.305 -18.01,112.812c-92.007,192.555 -285.43,189.759 -299.816,193.193c-3.613,0.862 -109.709,10.237 -150.592,-13.461c-246.768,-143.038 -194.477,-214.547 -219.279,-317.595c-8.775,-36.458 4.53,-182.102 -196.681,-267.166c-7.675,-3.245 -45.116,-19.073 -99.407,31.101c-114.263,105.599 -201.203,189.561 -132.761,527.784c7.723,38.163 43.222,213.592 266.144,407.491c327.559,284.912 662.878,664.543 743.286,773.135c154.796,209.053 193.441,352.496 193.721,352.963c0.246,4.344 2.918,46.643 0.015,100.055c-22.767,36.561 -9.378,119.754 -253.541,301.686c-9.146,6.815 -263.482,209.132 -374.981,279.489c-74.44,46.972 -125.563,112.558 -239.775,-13.539c-82.364,-90.934 43.113,-212.148 24.052,-446.69c-20.023,-246.37 -322.743,-584.098 -370.148,-619.004c-100.729,-74.171 -193.716,-197.795 -385.164,19.647c-45.461,51.634 -275.947,547.239 -323.337,623.116c-81.047,129.766 -197.555,488.696 -531.685,494.373c-306.906,5.215 -306.785,2.024 -333.338,4.518c-2.008,0.189 -2.265,4.096 -4.273,4.284l-4.167,0c-6.712,-2.314 -5.532,-4.276 -12.482,-4.303c-12.01,-0.047 -143.852,-0.561 -150.129,0.028c-1.956,0.184 -2.1,4.091 -4.056,4.275l-8.333,0c-2.015,-0.189 -2.306,-4.075 -4.32,-4.265c-4.978,-0.468 -4.487,1.656 -62.498,-0.46c-106.584,-3.888 -220.642,-160.655 -140.451,-242.16c168.309,-171.067 317.764,-214.853 436.286,-451.104c211.794,-422.169 255.4,-593.546 404.004,-841.78c144.189,-240.86 250.672,-420.95 286.955,-674.963c14.074,-98.53 -29.631,-149.368 -161.956,-181.782c-53.413,-13.084 -85.765,40.861 -198.481,113.092c-47.358,30.348 -110.358,115.959 -255.355,120.052c-13.497,0.381 -16.077,0.454 -166.958,-24.759c-357.642,-59.764 -412.988,37.262 -568.19,-171.116c-34.212,-45.935 -22.388,-51.815 -48.731,-92.797c-1.961,-51.085 -1.826,-66.878 -0.011,-100.078c10.316,-15.599 9.582,-43.919 105.944,-182.29c55.713,-80.001 272.814,-309.509 472.4,-45.734c62.022,81.968 85.164,280.859 280.337,324.623c13.475,3.021 95.502,-34.772 124.243,-60.151c190.992,-168.653 201.456,-259.894 454.737,-412.027c71.82,-43.139 71.2,-53.042 65,-136.747c-8.197,-110.676 -153.777,-98.738 -269.922,-228.218c-18.126,-20.207 -169.063,-153.603 -35.665,-375.654c72.121,-120.051 200.069,-194.318 278.18,-206.025c9.075,-1.36 8.094,-2.301 16.951,-4.819Z" style="fill:#ea371e;fill-opacity:1;"/><path d="M868.75,3879.162l-166.667,0c1.956,-0.184 2.1,-4.091 4.056,-4.275c6.277,-0.589 138.119,-0.075 150.129,-0.028c6.95,0.027 5.77,1.989 12.482,4.303Z" style="fill:#f25c2a;fill-opacity:0.82;"/></g></svg>