<?xml version="1.0" encoding="utf-8"?>
<!-- Generator: Adobe Illustrator 24.3.0, SVG Export Plug-In . SVG Version: 6.00 Build 0)  -->
<svg version="1.1" id="Layer_1" xmlns="http://www.w3.org/2000/svg" xmlns:xlink="http://www.w3.org/1999/xlink" x="0px" y="0px"
	 viewBox="0 0 512 512" style="enable-background:new 0 0 512 512;" xml:space="preserve">
<g id="XMLID_1_">
	<path id="XMLID_2_" d="M173.79,81.89c1.32-0.73,2.34-1.32,3.8-2.05c0.73,0.88,1.32,1.76,2.34,3.07c7.17-1.9,12.29,2.63,17.85,6.29
		c1.17,0,2.49,0,3.66,0c-0.15,0.29-0.44,0.73-0.59,1.02c7.17,4.68,14.63,9.22,21.66,14.19c6.29,4.54,12.15,9.8,18,14.93
		c2.05,1.76,3.66,4.24,5.56,6.44c21.8-35.41,51.95-55.9,92.48-59.99c0.15,0.29,0.29,0.59,0.59,0.88c2.63,1.61,5.27,3.22,7.9,4.68
		c2.63,1.46,5.27,2.93,7.61,4.68c2.63,2.34,5.27,4.68,8.05,6.88c11.56,9.22,23.71,17.85,33.8,28.83c0.59,0.59,1.02,1.17,1.32,1.9
		c3.22,6.73,6.44,13.61,9.8,20.34c4.83,9.8,3.8,20.05,2.49,30.44c-1.9,15.07-5.85,29.7-12.88,43.17
		c-7.32,14.05-15.07,27.95-23.27,41.41c-9.66,16.1-21.51,30.58-33.66,45.07c-13.75,16.24-27.07,32.78-41.56,48.14
		c-4.98,5.27-10.24,9.95-15.22,15.22c-3.07,3.22-5.71,6.88-9.51,11.56c-9.95,0.44-21.07,1.02-33.22,1.76
		c-16.83-14.93-33.95-30.58-51.8-45.51c-14.49-12-25.75-27.07-38.63-40.53c-1.9-2.05-3.07-4.68-4.68-7.02
		c-4.54-6.29-9.22-12.58-13.75-18.73c-1.32-1.9-2.93-3.66-4.1-5.56c-10.97-18.14-20.05-37.31-24.58-57.95
		c-2.05-9.22-2.34-18.88-2.49-28.24c-0.44-25.61-3.22-19.75,11.85-44.92c3.95-6.58,8.05-13.17,12.88-19.02
		c5.85-7.17,13.02-12.88,21.66-16.54c3.22-1.32,6.44-2.34,9.66-3.95C162.23,80.14,167.93,79.41,173.79,81.89z M202.47,183.01
		c-0.44,0-1.02-0.29-1.17-0.15c-5.71,6.29-11.27,12.58-16.97,18.88c-0.15-0.15-0.29-0.29-0.44-0.44c-2.19,0.59-4.39,1.32-6.88,2.05
		c-4.68-1.02-9.07-2.63-9.95-8.63c-0.29-1.46-1.76-2.78-2.78-4.1c-7.32-8.78-7.32-18,0.44-26.49c4.68-5.12,9.95-9.07,17.12-10.1
		c-3.37-1.76-6.88-4.54-10.24-4.39c-4.98,0.15-10.1,2.05-14.93,3.8c-4.98,1.76-9.66,4.68-14.78,6.44
		c-5.12,1.76-8.78,4.98-11.85,8.19c-0.59,7.46,1.76,13.32,5.56,18.88c10.54,15.8,24,26.34,44.19,24c13.02-1.46,25.9-3.66,38.63-5.41
		c-2.05-7.76-3.66-15.8-6.29-23.56c-3.51-10.24-9.8-18.58-14.05-20.19c0.59,1.32,1.02,2.63,1.61,3.95
		c-1.32-0.59-2.34-1.02-3.66-1.46c2.05,3.07,3.66,6.29,5.85,8.63C204.81,176.42,202.76,179.49,202.47,183.01z M305.77,151.25
		c3.07,1.32,6.15,2.05,8.49,3.8c6,4.54,9.36,10.54,10.97,18.14c1.9,9.36-0.88,15.51-8.49,20.49c-6.88,4.54-13.75,4.98-20.05-0.44
		c-7.76-6.58-12.29-14.93-10.68-25.9c-3.51,4.24-7.46,8.49-9.07,13.46c-2.19,6.58-2.49,13.61-3.66,20.63
		c16.39,4.98,24.44,5.85,37.31,3.22c3.95-0.73,7.9-1.46,9.36-5.85c10.54-1.9,36.14-30.44,36.73-40.83
		c-1.76-0.73-3.66-1.61-5.41-2.49c-4.98-2.34-9.8-5.85-15.07-6.58c-9.51-1.17-19.17-0.73-28.68-0.44c-2.05,0-4.24,1.76-6.29,2.78
		c0.15,0.44,0.29,0.73,0.44,1.17C303.14,152.13,304.75,151.69,305.77,151.25z"/>
	<g id="XMLID_3_">
		<g id="XMLID_4_">
			<g id="XMLID_5_">
				<path id="XMLID_6_" d="M24.24,403.52c-0.44-3.37-3.66-6-7.46-6c-6.73,0-9.22,5.71-9.22,11.71c0,5.71,2.49,11.41,9.22,11.41
					c4.54,0,7.17-3.22,7.76-7.61h7.32c-0.73,8.49-6.58,13.9-15.07,13.9c-10.54,0-16.83-7.9-16.83-17.71c0-10.1,6.15-18,16.83-18
					c7.46,0,13.75,4.39,14.78,12.29L24.24,403.52L24.24,403.52z"/>
				<path id="XMLID_7_" d="M50.14,391.23c10.39,0,16.39,7.9,16.39,18c0,9.8-6.15,17.71-16.39,17.71c-10.39,0-16.39-7.9-16.39-17.71
					C33.61,399.13,39.75,391.23,50.14,391.23z M50.14,420.64c6.58,0,9.07-5.71,9.07-11.41c0-6-2.49-11.71-9.07-11.71
					s-9.07,5.71-9.07,11.71C40.92,414.93,43.41,420.64,50.14,420.64z"/>
				<path id="XMLID_8_" d="M69.02,393.13h9.95l7.61,22.68h0.15l7.17-22.68h9.95v32.92h-6.58v-23.41h-0.15l-7.9,23.41H83.8
					l-7.9-23.12h-0.15v23.12h-6.58v-32.92H69.02z"/>
				<path id="XMLID_9_" d="M106.62,393.13h9.95l7.61,22.68h0.15l7.17-22.68h9.95v32.92h-6.58v-23.41h-0.15l-7.9,23.41h-5.41
					l-7.9-23.12h-0.15v23.12h-6.58v-32.92H106.62z"/>
				<path id="XMLID_10_" d="M146.57,393.13h24.58v6.15h-17.41v7.02h15.95v5.56h-15.95v8.05h17.71v6.15h-25.02v-32.92H146.57z"/>
			</g>
		</g>
		<g id="XMLID_11_">
			<g id="XMLID_12_">
				<path id="XMLID_13_" d="M310.46,422.69c-2.63,3.37-6,4.68-9.22,4.68c-10.39,0-16.39-7.9-16.39-17.71c0-10.1,6.15-18,16.39-18
					c6.88,0,13.32,4.24,14.05,12h-7.02c-0.88-3.8-3.66-5.71-7.02-5.71c-6.58,0-9.07,5.71-9.07,11.71c0,5.71,2.49,11.41,9.07,11.41
					c4.83,0,7.61-2.63,7.9-7.32h-7.46v-5.56h14.05v18.44h-4.68L310.46,422.69z"/>
				<path id="XMLID_14_" d="M330.65,392.4h7.32l12.15,34.09h-7.46l-2.49-7.61h-12.15l-2.49,7.61h-7.17L330.65,392.4z M329.92,413.33
					h8.34l-4.1-12.58h-0.15L329.92,413.33z"/>
				<path id="XMLID_27_" d="M352.45,392.4h17.71c5.85,0,9.66,4.24,9.66,9.36c0,3.95-1.61,7.02-5.12,8.49v0.15
					c3.51,1.02,4.54,4.54,4.83,8.05c0.15,2.19,0.15,6.15,1.32,8.05h-7.17c-0.88-2.19-0.73-5.41-1.17-8.19
					c-0.44-3.66-1.9-5.12-5.41-5.12h-7.17v13.32h-7.17V392.4H352.45z M359.62,407.76h7.9c3.22,0,4.98-1.46,4.98-4.83
					c0-3.37-1.76-4.68-4.98-4.68h-7.9V407.76z"/>
				<path id="XMLID_30_" d="M406.01,403.81c-0.44-3.37-3.66-6-7.32-6c-6.58,0-9.07,5.71-9.07,11.71c0,5.71,2.49,11.41,9.07,11.41
					c4.54,0,7.02-3.22,7.61-7.61h7.17c-0.73,8.49-6.44,13.9-14.63,13.9c-10.39,0-16.39-7.9-16.39-17.71c0-10.1,6.15-18,16.39-18
					c7.32,0,13.46,4.39,14.49,12.29L406.01,403.81L406.01,403.81z"/>
				<path id="XMLID_32_" d="M432.79,391.52c10.24,0,16.24,7.9,16.24,18c0,9.8-6,17.71-16.24,17.71s-16.24-7.9-16.24-17.71
					C416.54,399.42,422.54,391.52,432.79,391.52z M432.79,421.08c6.58,0,8.93-5.71,8.93-11.41c0-6-2.49-11.71-8.93-11.71
					c-6.58,0-8.93,5.71-8.93,11.71C423.86,415.23,426.2,421.08,432.79,421.08z"/>
				<path id="XMLID_35_" d="M452.83,392.4H460l13.75,22.83h0.15V392.4h6.88v34.09h-7.32l-13.75-22.83h-0.15v22.83h-6.88V392.4
					H452.83z"/>
				<path id="XMLID_37_" d="M491.03,415.23c0,4.54,3.51,6.29,7.46,6.29c2.63,0,6.44-0.73,6.44-4.24c0-3.66-4.98-4.24-9.95-5.71
					c-4.98-1.32-9.95-3.37-9.95-9.66c0-7.02,6.44-10.39,12.44-10.39c7.02,0,13.46,3.07,13.46,10.97h-7.17
					c-0.29-4.1-3.07-5.12-6.58-5.12c-2.34,0-5.12,1.02-5.12,3.8c0,2.63,1.61,2.93,9.95,5.12c2.49,0.59,9.95,2.19,9.95,9.95
					c0,6.29-4.83,10.97-13.9,10.97c-7.46,0-14.34-3.66-14.19-12.15h7.17V415.23z"/>
			</g>
		</g>
		<g id="XMLID_40_">
			<g id="XMLID_41_">
				<path id="XMLID_42_" d="M400.3,436.15l5.41-2.05l1.32,3.51l-5.41,1.76l3.37,4.54l-3.07,2.19l-3.37-4.68l-3.22,4.68l-3.07-2.19
					l3.37-4.54l-5.41-1.76l1.32-3.51l5.27,2.05v-5.71h3.66v5.71H400.3z"/>
			</g>
		</g>
		<g id="XMLID_47_">
			<g id="XMLID_48_">
				<path id="XMLID_49_" d="M208.61,422.4L208.61,422.4c-1.61,2.63-4.24,3.66-7.32,3.66c-7.17,0-10.68-6.15-10.68-12.73
					c0-6.44,3.51-12.44,10.54-12.44c2.78,0,5.56,1.17,7.17,3.51l0,0h0.15v-12h6.58v32.92h-6.29v-2.93H208.61z M202.91,405.86
					c-4.24,0-5.71,3.66-5.71,7.61c0,3.66,1.76,7.61,5.71,7.61c4.39,0,5.56-3.8,5.56-7.76C208.47,409.52,207.15,405.86,202.91,405.86
					z"/>
				<path id="XMLID_52_" d="M223.98,415.08c0.15,4.1,2.19,6,5.85,6c2.63,0,4.68-1.61,5.12-3.07h5.71c-1.9,5.56-5.71,8.05-11.12,8.05
					c-7.46,0-12.15-5.12-12.15-12.58c0-7.17,4.98-12.58,12.15-12.58c8.05,0,12,6.88,11.56,14.19H223.98z M234.66,410.98
					c-0.59-3.37-2.05-5.12-5.27-5.12c-4.1,0-5.41,3.22-5.41,5.12H234.66z"/>
				<path id="XMLID_55_" d="M249.88,417.72c0,2.93,2.49,3.95,4.98,3.95c1.9,0,4.24-0.73,4.24-3.07c0-2.05-2.78-2.63-7.46-3.66
					c-3.8-0.88-7.61-2.19-7.61-6.29c0-6.15,5.27-7.61,10.39-7.61c5.27,0,9.95,1.76,10.54,7.61h-6c-0.15-2.49-2.05-3.22-4.54-3.22
					c-1.46,0-3.66,0.29-3.66,2.19c0,2.34,3.66,2.63,7.46,3.51c3.8,0.88,7.61,2.19,7.61,6.73c0,6.29-5.41,8.34-10.83,8.34
					c-5.56,0-10.97-2.05-11.27-8.34h6.15V417.72z"/>
			</g>
		</g>
	</g>
</g>
</svg>
