<?xml version="1.0" encoding="UTF-8" standalone="no"?><!DOCTYPE svg PUBLIC "-//W3C//DTD SVG 1.1//EN" "http://www.w3.org/Graphics/SVG/1.1/DTD/svg11.dtd"><svg width="100%" height="100%" viewBox="0 0 3396 1430" version="1.1" xmlns="http://www.w3.org/2000/svg" xmlns:xlink="http://www.w3.org/1999/xlink" xml:space="preserve" xmlns:serif="http://www.serif.com/" style="fill-rule:evenodd;clip-rule:evenodd;stroke-linejoin:round;stroke-miterlimit:2;"><g id="Background"><path d="M3395.166,373.004l0,6.631c-0.497,1.492 -2.918,1.763 -3.415,3.254c-0.723,2.169 0.036,4.572 0.045,6.858c0.024,6.344 2.66,5.104 3.371,6.466c-0.852,1.485 -2.521,0.596 -3.963,6.913c-4.809,21.065 -22.074,41.483 -24.211,46.14c-1.481,3.228 -20.217,21.716 -23.129,23.33c-5.674,3.144 -4.666,4.203 -6.754,6.478c-0.566,0.616 -1.533,0.742 -2.128,1.33c-0.542,0.536 -0.594,1.48 -1.191,1.954c-0.745,0.591 -1.83,0.584 -2.639,1.085c-0.327,0.202 -4.692,4.368 -7.269,5.604c-1.064,0.51 -9.681,4.645 -12.89,7.165c-6.54,5.135 -18.403,6.751 -23.12,10.121c-6.209,4.436 -28.976,8.078 -46.26,17.161c-3.056,1.606 -12.142,9.877 -13.179,18.705c-1.788,15.228 -5.571,14.508 -6.348,29.793c-0.907,17.818 2.407,18.068 4.362,20.802c0.565,0.79 4.908,9.925 7.399,12.751c8.217,9.319 8.109,9.3 16.159,20.053c8.095,10.811 11.322,21.11 14.795,25.494c1.066,1.345 6.262,7.906 7.256,20.19c1.824,22.541 -3.273,31.958 -3.493,33.474c-1.239,8.554 -8.681,27.812 -9.594,30.174c-1.942,5.025 -0.849,5.514 -4.198,9.776c-6.025,7.667 -3.4,9.372 -10.15,16.502c-1.644,1.736 -1.561,1.672 -3.289,3.373c-7.717,7.594 -7.983,7.281 -8.646,7.947c-5.092,5.111 -4.755,5.358 -10.763,9.499c-0.293,0.202 -1.874,1.292 -3.333,2.942c-0.528,0.597 -0.55,1.569 -1.146,2.099c-2.187,1.942 -2.881,0.4 -5.226,2.04c-0.549,0.384 -0.49,1.328 -1.029,1.726c-0.779,0.574 -1.883,0.537 -2.715,1.032c-5.26,3.129 -4.399,4.109 -4.877,4.317c-0.457,0.198 -0.963,-0.659 -1.421,-0.462c-0.566,0.244 -0.482,1.274 -1.045,1.525c-3.428,1.534 -3.61,0.787 -7.017,2.461c-14.343,7.046 -14.773,7.17 -16.144,7.564c-17.381,4.992 -21.382,3.917 -23.194,3.43c-8.151,-2.19 -8.208,-0.91 -16.382,0.921c-5.987,1.342 -6.099,1 -11.029,4.463c-0.494,0.347 -13.325,4.155 -18.583,8.399c-6.541,5.28 -7.809,3.269 -14.154,8.842c-2.746,2.412 -2.524,2.572 -5.452,4.813c-0.587,0.449 -4.539,3.474 -7.068,5.96c-3.911,3.846 -3.697,6.091 -9.43,10.579c-5.369,4.203 -4.225,5.134 -10.126,12.802c-4.11,5.341 -1.523,6.496 -4.917,12.31c-2.247,3.85 -2.274,3.754 -4.281,7.721c-1.796,3.55 -6.584,21.968 -7.306,26.062c-0.801,4.541 -9.271,26.796 -9.796,33.126c-0.572,6.902 -0.996,6.804 -2.996,10.34c-3.263,5.77 -2.684,13.281 -9.708,29.89c-3.774,8.924 -4.385,15.206 -4.698,16.04c-0.498,1.33 -1.364,2.504 -1.838,3.843c-0.43,1.213 -0.947,9.167 -2.735,11.834c-4.278,6.378 -3.589,6.668 -4.618,14.282c-0.707,5.229 -2.29,4.757 -3.107,10.032c-1.621,10.462 -4.056,9.675 -6.37,19.915c-2.785,12.323 -3.338,12.173 -3.509,13.256c-1.653,10.433 -4.093,9.626 -6.473,19.903c-2.868,12.386 -3.355,12.149 -3.53,13.23c-1.117,6.9 -1.608,6.701 -4.067,13.166c-7.088,18.63 -3.44,22.461 -9.625,30.096c-0.864,1.066 -10.013,19.081 -11.814,21.793c-1.054,1.587 -18.017,18.334 -19.608,19.905c-9.542,9.421 -17.136,14.053 -18.528,14.763c-5.49,2.797 -4.613,4.247 -10.28,6.177c-0.996,0.339 -2.03,0.559 -3.021,0.91c-6.368,2.251 -5.553,3.757 -10.276,5.651c-22.113,8.867 -22.845,3.757 -46.48,0.65c-5.624,-0.739 -9.789,-4.434 -16.699,-5.947c-12.365,-2.707 -12.174,-3.359 -13.257,-3.536c-6.877,-1.121 -6.581,-1.886 -13.276,-3.417c-1.779,-0.407 -14.704,-4.803 -15.977,-5.236c-8.717,-2.965 -9.982,0.509 -17.313,-5.059c-3.231,-2.454 -11.544,-3.377 -12.911,-3.872c-4.936,-1.787 -4.839,-1.877 -10.062,-2.75c-8.673,-1.45 -7.659,-4.335 -16.662,-6.487c-5.614,-1.342 -5.263,-2.102 -6.928,-3.075c-4.566,-2.668 -4.859,-1.865 -5.216,-2.142c-2.326,-1.8 -1.578,-2.719 -7.575,-5.416c-3.092,-1.39 -2.535,-2.014 -3.591,-3.042c-12.167,-11.853 -12.293,-11.714 -13.277,-13.266c-1.306,-2.06 -1.696,-1.595 -3.32,-3.325c-1.241,-1.321 -3.884,-5.679 -4.195,-6.19c-0.98,-1.616 -1.09,-1.468 -4.384,-5.04c-5.713,-6.195 -6.849,-11.477 -10.109,-16.148c-10.027,-14.362 -8.051,-15.269 -8.768,-22.557c-0.992,-10.079 -3.96,-10.045 -1.157,-19.72c2.388,-8.24 0.019,-8.589 2.327,-16.899c2.698,-9.714 2.451,-9.695 2.637,-19.87c0.179,-9.803 3.404,-9.818 1.756,-16.861c-4.544,-19.419 0.366,-34.805 -3.336,-49.747c-2.443,-9.861 -0.338,-10.213 -3.309,-19.927c-6.005,-19.628 -7.992,-23.489 -8.978,-25.406c-5.112,-9.932 -10.547,-7.135 -11.491,-6.649c-3.394,1.747 -3.102,2.101 -6.773,3.383c-9.064,3.166 -8.87,3.609 -24.024,14.848c-4.207,3.12 -6.76,4.244 -9.982,6.571c-20.809,15.034 -27.927,16.149 -32.556,17.548c-3.303,0.998 -4.062,1.228 -43.107,1.284c-6.904,0.01 -79.928,0.116 -86.3,-0.626c-5.336,-0.622 -4.821,-2.322 -10.047,-3.254c-5.25,-0.936 -4.797,-2.056 -9.822,-3.907c-2.141,-0.788 -1.773,-1.275 -3.695,-2.366c-4.699,-2.667 -14.876,-3.69 -16.201,-3.823c-6.101,-0.613 -6.858,-2.601 -7.007,-2.681c-7.74,-4.166 -23.024,-3.79 -26.065,-4.563c-9.769,-2.486 -9.902,-1.506 -19.625,-4.196c-2.58,-0.714 -3.917,-1.084 -33.461,-0.686c-8.403,0.113 -8.074,1.941 -16.518,2.763c-8.413,0.819 -8.124,1.905 -16.491,3.013c-5.983,0.792 -5.162,3.531 -10.088,5.735c-3.414,1.527 -2.944,2.337 -6.603,3.368c-5.051,1.423 -5.018,1.274 -9.865,3.49c-19.953,9.119 -27.843,6.878 -36.093,11.069c-12.135,6.164 -13.657,0.496 -27.304,4.355c-3.044,0.861 -8.023,2.269 -39.474,2.336c-47.157,0.101 -46.871,-2.549 -49.55,-2.933c-17.204,-2.465 -18.113,2.316 -33.469,-4.767c-7.463,-3.442 -14.765,-1.582 -22.67,-4.629c-33.276,-12.827 -33.669,-11.773 -36.344,-13.334c-3.755,-2.19 -3.429,-2.845 -10.706,-4.93c-3.375,-0.967 -2.764,-1.764 -3.915,-3.013c-4.07,-4.412 -6.596,-2.63 -16.173,-10.354c-2.908,-2.345 -3.322,-1.569 -6.243,-3.795c-0.577,-0.44 -0.65,-1.343 -1.202,-1.813c-0.679,-0.579 -1.721,-0.63 -2.375,-1.238c-0.571,-0.531 -0.594,-1.489 -1.148,-2.038c-0.405,-0.401 -0.568,-0.112 -5.633,-4.358c-2.864,-2.401 -3.3,-1.607 -6.196,-3.853c-0.572,-0.443 -0.648,-1.346 -1.211,-1.801c-0.699,-0.564 -1.768,-0.549 -2.439,-1.146c-0.592,-0.527 -0.607,-1.515 -1.174,-2.069c-0.599,-0.586 -1.486,-0.779 -2.194,-1.228c-0.268,-0.171 -14.507,-13.446 -16.282,-16.902c-1.628,-3.17 -1.888,-2.948 -12.063,-14.326c-3.509,-3.923 -3.107,-4.168 -9.205,-14.651c-1.135,-1.952 -4.332,-3.24 -5.814,-7.279c-0.336,-0.916 -0.408,-1.93 -0.849,-2.8c-2.125,-4.192 -4.222,-2.694 -5.664,-7.212c-2.02,-6.333 -12.13,-24.629 -12.717,-26.743c-1.405,-5.062 -1.246,-5.045 -3.451,-9.884c-10.289,-22.576 -13.642,-22.542 -15.389,-24.318c-2.542,-2.584 -1.665,-3.356 -4.708,-5.235c-1.181,-0.729 -6.065,-5.159 -6.916,-5.441c-12.873,-4.273 -18.046,-2.943 -19.576,-2.549c-21.354,5.49 -26.544,-5.125 -37.212,10.364c-10.233,14.857 -11.563,26.461 -13.532,29.522c-7.896,12.276 -4.71,13.638 -9.768,23.595c-8.229,16.198 -7.173,21.45 -9.919,26.536c-8.015,14.845 -7.497,22.133 -10.134,26.131c-8.183,12.406 -4.812,13.872 -9.801,23.585c-7.568,14.736 -5.954,15.366 -6.613,16.638c-2.768,5.342 -1.391,5.954 -4.99,10.751c-2.799,3.73 -6.863,17.899 -7.322,19.501c-0.9,3.137 -5.036,9.889 -7.435,16.251c-2.677,7.099 -0.633,7.872 -5.101,14c-2.893,3.968 -3.433,12.873 -5.017,15.653c-11.536,20.248 -9.689,27.427 -13.398,32.801c-4.312,6.249 -2.926,6.876 -6.405,13.701c-7.493,14.699 -5.946,15.298 -6.621,16.554c-11.706,21.808 -9.474,26.079 -13.247,33.189c-6.763,12.745 -7.995,23.813 -13.241,33.136c-5.768,10.251 -3.572,11.21 -6.905,16.151c-5.438,8.061 -2.229,9.358 -6.338,17.104c-3.282,6.186 -1.977,6.554 -2.304,7.049c-0.372,0.563 -1.438,0.283 -1.854,0.815c-0.616,0.788 -0.585,1.918 -0.996,2.829c-0.34,0.753 -0.591,0.609 -4.817,9.142c-1.68,3.393 -0.881,3.599 -2.398,7.05c-0.245,0.557 -1.347,0.34 -1.59,0.898c-0.221,0.508 0.712,1.066 0.511,1.582c-0.246,0.632 -1.178,0.721 -1.61,1.244c-1.089,1.319 -0.919,1.345 -4.859,9.118c-1.733,3.418 -0.823,3.629 -2.382,7.058c-0.27,0.593 -1.347,0.374 -1.738,0.895c-0.595,0.794 -0.615,1.891 -1.029,2.793c-0.65,1.418 -4.368,6.661 -7.129,12.913c-1.14,2.581 -4.29,4.658 -9.949,16.576c-0.565,1.189 -1.106,0.758 -8.855,13.868c-5.386,9.113 -5.218,9.327 -10.127,13.581c-2.592,2.247 -2.444,4.331 -7.142,9.361c-0.5,0.535 -4.539,4.859 -5.851,7.034c-0.309,0.512 -3.066,5.084 -4.145,6.219c-0.556,0.585 -1.587,0.529 -2.156,1.1c-1.777,1.783 -0.746,2.39 -2.52,4.203c-4.1,4.191 -4.333,3.842 -8.451,8.076c-4.984,5.125 -3.911,6.06 -9.66,10.473c-6.428,4.933 -5.083,6.286 -11.313,11.378c-1.902,1.554 -1.893,1.422 -3.71,3.177c-1.728,1.668 -1.623,1.616 -3.34,3.338c-5.882,5.899 -7.073,4.286 -13.199,9.937c-4.397,4.056 -5.114,3.041 -9.512,7.106c-5.457,5.044 -5.432,5.039 -11.924,8.555c-0.835,0.452 -4.632,3.979 -7.392,5.346c-5.411,2.68 -4.556,3.991 -9.997,6.547c-12.375,5.815 -13.753,8.806 -16.543,10.005c-3.46,1.487 -2.979,2.296 -6.645,3.296c-5.101,1.391 -5.081,1.211 -9.909,3.396c-13.009,5.888 -13.493,4.341 -26.491,10.025c-9.65,4.22 -10.005,2.951 -19.974,6.452c-2.394,0.841 -8.738,0.889 -13.586,2.403c-14.364,4.486 -14.367,4.5 -29.415,5.477c-6.148,0.399 -5.598,3.104 -6.729,3.731l-3.316,0c-1.39,-0.725 -1.83,-2.704 -3.22,-3.428c-0.402,-0.209 -48.958,-0.001 -53.215,0.017c-39.778,0.171 -39.89,-1.162 -43.153,-0.035c-1.481,0.512 -1.715,2.934 -3.195,3.446l-3.316,0c-1.177,-0.656 -0.497,-3.344 -6.72,-3.743c-3.585,-0.23 -16.051,-0.219 -32.754,-5.425c-8.093,-2.522 -8.4,-0.894 -16.553,-3.398c-8.775,-2.695 -9.336,-0.525 -20.347,-5.413c-13.89,-6.166 -20.517,-6.736 -22.188,-8.039c-0.562,-0.438 -0.662,-1.305 -1.205,-1.765c-3.399,-2.878 -7.855,-3.059 -9.67,-7.011c-2.89,-6.295 -5.107,-5.393 -6.581,-6.686c-1.429,-1.253 -1.226,-1.338 -4.422,-5.781c-1.117,-1.554 -2.789,-3.049 -3.057,-3.288c-4.684,-4.189 -4.152,-4.516 -7.107,-10.004c-0.516,-0.959 -1.113,-0.41 -7.633,-11.271c-2.015,-3.356 -4.153,-8.574 -4.467,-9.34c-5.805,-14.163 -8.047,-13.913 -7.472,-36.567c0.2,-7.889 2.324,-7.389 3.209,-13.442c1.55,-10.591 3.427,-9.887 7.492,-19.793c1.414,-3.445 1.87,-3.199 2.761,-6.749c2.028,-8.083 4.902,-7.611 5.841,-10.395c1.06,-3.141 -0.821,-4.731 9.105,-18.669c3.452,-4.847 2.744,-5.262 6.765,-9.516c2.687,-2.843 3.26,-2.387 5.528,-7.651c1.157,-2.686 1.656,-2.315 10.58,-9.019c3.895,-2.926 3.572,-3.174 7.071,-6.447c1.942,-1.816 2.423,-0.909 4.466,-2.595c0.545,-0.45 0.606,-1.341 1.169,-1.766c2.956,-2.23 3.42,-1.413 6.273,-3.78c8.765,-7.272 10.228,-4.892 16.537,-10.033c1.125,-0.917 3.697,-3.013 16.642,-7.226c2.985,-0.972 13.961,-8.642 40.202,-6.581c12.653,0.994 18.171,7.813 33.581,-1.196c1.276,-0.746 8.415,-1.129 15.611,-8.17c3.443,-3.369 4.31,-2.415 6.794,-6.439c0.691,-1.12 0.795,-0.96 11.271,-11.988c1.693,-1.782 1.654,-1.72 3.196,-3.688c2.111,-2.694 2.217,-2.492 4.773,-4.84c3.007,-2.763 4.939,-10.732 5.446,-11.413c1.983,-2.661 9.068,-6.668 7.575,-27.358c-0.541,-7.504 -3.279,-10.397 -8.904,-26.569c-2.03,-5.836 -1.775,-5.873 -5.28,-10.9c-1.219,-1.749 -6.153,-18.858 -8.466,-21.901c-5.948,-7.827 -5.854,-17.963 -9.957,-23.194c-3.726,-4.751 -2.206,-5.449 -5.008,-10.794c-2.222,-4.239 -1.511,-9.189 -9.925,-23.304c-1.586,-2.661 -0.643,-2.979 -2.147,-5.622c-1.112,-1.955 -1.589,-1.575 -2.351,-3.727c-0.339,-0.959 -0.356,-2.049 -0.878,-2.923c-0.286,-0.479 -1.316,-0.356 -1.408,-0.906c-0.128,-0.762 1.159,-1.41 0.898,-2.137c-0.228,-0.636 -1.538,-0.119 -1.91,-0.683c-0.593,-0.9 -0.441,-2.109 -0.63,-3.17c-1.025,-5.771 -4.985,-9.933 -5.841,-13.475c-3.862,-15.982 -6.701,-17.098 -10.854,-29.564c-0.823,-2.47 -1.619,-2.13 -12.55,-30.024c-1.472,-3.756 -5.812,-11.171 -6.537,-13.311c-0.327,-0.965 -0.34,-2.055 -0.856,-2.933c-0.284,-0.482 -1.286,-0.367 -1.407,-0.913c-0.154,-0.701 1.008,-1.34 0.762,-2.014c-0.223,-0.61 -1.432,-0.239 -1.784,-0.785c-0.322,-0.5 1.182,-1.003 -2.292,-7.068c-3.713,-6.483 -7.056,-21.952 -13.175,-33.246c-0.452,-0.835 -6.113,-19.404 -8.316,-22.281c-6.508,-8.498 -5.97,-18.118 -9.94,-23.222c-3.699,-4.756 -2.166,-5.454 -5.021,-10.781c-0.917,-1.712 -2.282,-9.231 -4.86,-12.47c-1.265,-1.589 -2.198,-1.068 -3.502,-6.786c-0.598,-2.622 -11.636,-31.242 -13.051,-33.039c-0.411,-0.522 -1.336,-0.606 -1.568,-1.228c-0.2,-0.539 0.724,-1.124 0.496,-1.652c-0.235,-0.545 -1.334,-0.293 -1.57,-0.837c-1.487,-3.423 -0.591,-3.656 -2.436,-7.021c-3.79,-6.911 -1.609,-7.799 -6.559,-16.651c-0.826,-1.478 -6.186,-19.456 -8.332,-22.278c-6.71,-8.824 -5.848,-17.99 -9.934,-23.226c-2.359,-3.023 -1.884,-3.214 -9.558,-23.498c-2.594,-6.857 -5.985,-10.285 -7.173,-16.514c-1.147,-6.013 -1.083,-6.065 -4.606,-11.048c-0.589,-0.833 -3.158,-9.96 -11.325,-10.887c-7.354,-0.834 -27.334,-0.37 -29.71,-0.314c-14.164,0.329 -14.818,0.665 -24.3,11.2c-10.773,11.969 -6.652,17.38 -8.928,24.139c-8.071,23.968 -5.22,24.474 -5.222,49.749c-0.016,261.686 1.514,281.73 -2.319,287.976c-0.288,0.469 -1.037,0.519 -1.317,0.992c-0.511,0.864 -0.58,1.925 -0.96,2.854c-1.011,2.467 -5.308,6.813 -5.581,7.265c-0.498,0.824 -0.647,1.815 -1.039,2.695c-1.382,3.107 -6.015,6.632 -6.277,6.942c-2.879,3.407 -3.133,7.899 -7.03,9.647c-6.834,3.066 -5.169,4.907 -6.646,6.585c-0.546,0.621 -1.604,0.583 -2.188,1.168c-0.575,0.576 -0.519,1.631 -1.138,2.16c-0.443,0.379 -0.984,-0.581 -6.213,3.807c-5.188,4.353 -5.363,4.055 -5.81,4.431c-0.541,0.454 -0.664,1.301 -1.228,1.725c-1.905,1.431 -2.046,1.087 -3.864,2.695c-0.612,0.541 -1.483,0.767 -2.03,1.375c-1.455,1.617 -0.935,2.211 -3.836,3.118c-1.123,0.351 -8.656,2.706 -13.203,6.49c-0.53,0.441 -0.56,1.441 -1.206,1.681c-0.55,0.204 -1.113,-0.865 -1.647,-0.621c-0.58,0.266 -0.252,1.41 -0.799,1.74c-2.257,1.362 -60.726,0.302 -155.811,0.761c-11.265,0.054 -11.445,0.261 -17.091,-2.843c-0.479,-0.263 -10.165,-3.368 -22.148,-12.009c-2.258,-1.628 -6.594,-3.965 -9.463,-6.805c-5.882,-5.824 -5.729,-5.941 -8.37,-7.958c-6.548,-4.998 -4.852,-6.415 -7.576,-9.383c-1.058,-1.153 -2.729,-1.567 -3.92,-2.581c-1.947,-1.659 -0.805,-2.409 -2.611,-4.204c-0.557,-0.553 -1.589,-0.459 -2.108,-1.048c-0.608,-0.691 -0.475,-1.838 -1.058,-2.549c-0.464,-0.566 -1.466,-0.496 -1.914,-1.075c-0.224,-0.29 0.183,-0.497 -2.393,-3.905c-0.576,-0.762 -0.096,-1.066 -6.639,-9.919c-1.729,-2.34 -0.6,-2.833 -2.379,-5.143c-0.413,-0.536 -1.424,-0.387 -1.788,-0.957c-0.587,-0.92 -0.001,-1.111 -3.573,-13.164c-1.26,-4.252 -1.324,-14.71 0.104,-19.987c2.209,-8.167 -2.003,-8.405 0.066,-16.558c2.347,-9.246 1.746,-9.388 1.898,-102.783c0.033,-20.429 0.41,-252.321 0.758,-255.36c0.567,-4.95 2.413,-5.784 2.473,-13.207c0.536,-66.796 -0.751,-166.077 1.071,-222.147c0.374,-11.513 -0.291,-208.665 -0.319,-208.867c-0.201,-1.45 -2.846,-9.294 0.606,-16.659c1.339,-2.856 4.959,-6.13 5.309,-7.188c0.648,-1.961 0.859,-4.042 1.395,-6.037c0.75,-2.788 1.455,-2.319 2.348,-3.832c0.507,-0.859 0.307,-2.059 0.916,-2.849c0.453,-0.588 1.538,-0.382 2.013,-0.952c1.814,-2.178 0.473,-2.847 2.254,-5.082c0.39,-0.489 1.207,-0.548 1.533,-1.081c0.512,-0.839 0.217,-2.072 0.851,-2.824c0.532,-0.632 1.715,-0.337 2.302,-0.918c0.625,-0.618 0.428,-1.808 1.067,-2.413c0.644,-0.61 1.755,-0.446 2.484,-0.951c1.337,-0.926 10.988,-15.668 17.403,-18.956c1.246,-0.639 1.43,-0.246 14.316,-12.096c7.311,-6.723 20.964,-11.929 21.652,-12.291c6.037,-3.183 6.328,-2.722 83.471,-2.721c73.578,0.001 73.972,-0.487 80.144,2.717c6.648,3.452 6.794,2.995 13.303,6.823c6.454,3.796 6.144,4.137 12.095,8.608c1.875,1.409 2.158,0.854 3.954,2.318c0.604,0.493 0.509,1.558 1.104,2.061c1.998,1.689 2.699,0.463 4.51,2.304c5.766,5.86 5.336,6.18 11.216,12.006c5.071,5.025 5.32,4.754 6.336,6.933c4.091,8.773 7.489,7.93 9.943,13.267c8.118,17.654 11.161,17.036 11.361,36.488c0.566,54.94 -1.01,125.538 0.958,132.896c5.63,21.05 -2.627,85.32 4.871,95.431c6.412,8.648 4.998,9.461 11.409,17.975c0.18,0.239 6.229,13.157 11.593,18.555c3.045,3.064 2.995,3.09 3.259,3.355c1.686,1.685 1.548,1.675 3.224,3.411c1.375,1.423 1.831,0.966 3.031,3.571c3.417,7.422 7.097,5.901 8.885,7.689c0.408,0.408 -1.032,1.233 3.829,6.119c0.515,0.517 0.753,1.303 1.348,1.725c0.742,0.526 1.84,0.43 2.529,1.024c0.613,0.529 0.571,1.57 1.142,2.142c0.583,0.585 1.622,0.571 2.176,1.183c1.615,1.785 1.006,2.183 2.81,3.863c2.834,2.64 15.709,9.518 19.995,8.013c4.446,-1.561 6.965,-5.96 20.167,-6.518c29.373,-1.241 30.965,2.077 46.457,-2.245c3.743,-1.044 3.818,-0.929 92.906,-0.916c10.256,0.001 9.94,1.89 20.044,3.324c0.756,0.107 7.668,1.089 9.312,2.088c0.481,0.292 0.524,1.067 1.007,1.356c0.853,0.511 2.037,0.341 2.829,0.942c0.566,0.429 0.395,1.455 0.938,1.913c2.226,1.876 2.736,0.731 5.092,2.419c1.907,1.366 2.099,0.9 3.948,2.234c0.554,0.4 0.456,1.39 1.017,1.78c2.389,1.662 3.119,0.01 5.277,1.958c0.601,0.543 0.581,1.547 1.107,2.162c1.165,1.36 7.812,5.062 11.435,8.527c7.7,7.363 8.13,6.721 15.562,14.209c1.733,1.745 1.699,1.629 3.205,3.705c0.203,0.28 1.465,2.019 3.053,3.064c4.333,2.849 4.69,2.48 5.698,4.504c4.235,8.5 7.444,8.156 10.038,13.203c2.775,5.398 4.084,4.529 6.571,9.988c2.826,6.202 5.883,10.939 6.52,13.312c0.988,3.682 0.647,3.706 2.37,7.031c1.652,3.188 2.12,12.087 4.922,15.782c4.279,5.643 2.077,6.46 4.329,13.111c5.42,16.007 7.443,15.387 9.392,26.807c0.433,2.539 4.238,12.535 5.886,16.68c4.693,11.807 3.836,12.065 8.835,23.724c1.511,3.523 2.784,2.734 3.917,6.349c4.906,15.661 5.314,15.466 8.923,20.704c4.524,6.565 0.204,8.612 9.919,23.215c0.019,0.029 4.212,13.022 8.519,18.53c2.619,3.349 6.134,9.953 12.942,16.726c18.187,18.093 23.166,15.925 36.254,19.955c8.019,2.469 8.119,1.126 16.271,-0.739c16.947,-3.876 24.691,-11.08 26.407,-12.676c5.238,-4.872 6.753,-3.409 10.154,-9.648c1.58,-2.899 7.903,-8.758 8.842,-10.593c4.04,-7.897 3.689,-8.044 8.771,-15.295c5.356,-7.642 6.1,-15.298 6.814,-16.607c1.066,-1.954 1.328,-1.712 2.141,-3.874c1.874,-4.984 1.917,-4.882 3.368,-9.919c0.275,-0.956 0.471,-1.97 1.002,-2.811c0.298,-0.472 1.094,-0.475 1.377,-0.956c1.573,-2.674 0.322,-3.076 1.952,-5.693c0.277,-0.445 1.006,-0.478 1.263,-0.935c2.443,-4.354 1.132,-8.615 7.12,-16.509c2.123,-2.798 5.954,-20.715 7.255,-22.796c0.336,-0.537 1.427,-0.299 1.687,-0.877c0.232,-0.516 -0.773,-1.065 -0.577,-1.596c0.134,-0.362 1.185,0.458 3.007,-3.78c3.599,-8.37 4.834,-15.711 5.071,-17.119c1.085,-6.45 4.698,-9.89 6.206,-16.652c0.238,-1.068 0.189,-2.182 0.366,-3.261c0.856,-5.236 2.319,-4.731 3.352,-9.956c0.168,-0.848 9.89,-27.266 10.761,-29.633c0.903,-2.454 4.557,-6.242 5.004,-7.332c1.086,-2.65 -0.459,-3.365 5.785,-12.035c2.544,-3.532 3.552,-6.101 6.604,-9.908c2.859,-3.567 2.915,-3.357 6.391,-6.385c5.319,-4.633 4.372,-5.49 9.899,-9.955c5.486,-4.431 4.421,-5.467 9.976,-9.856c5.742,-4.536 5.688,-4.49 5.741,-4.541c4.333,-4.212 5.154,-3.018 9.846,-6.811c6.885,-5.566 7.76,-4.343 13.315,-9.836c4.327,-4.279 5.306,-2.44 10.71,-5.175c10.173,-5.149 26.014,0.195 42.645,-4.425c5.624,-1.562 5.665,-1.337 72.955,-1.058c11.735,0.049 11.443,2.495 23.186,2.681c39.188,0.62 41.436,8.289 49.471,1.396c5.189,-4.451 5.84,-8.879 5.973,-9.786c0.441,-3 2.074,-14.098 10.935,-36.29c1.884,-4.717 3.356,-3.925 5.59,-10.283c4.707,-13.395 7.068,-12.023 9.614,-16.96c0.38,-0.736 2.97,-5.759 4.571,-9.293c1.194,-2.636 4.907,-6.389 5.379,-7.318c0.895,-1.76 1.376,-3.713 2.285,-5.466c0.226,-0.437 0.975,-0.529 1.075,-1.011c0.008,-0.04 -0.858,-3.113 1.606,-5.802c0.537,-0.586 1.547,-0.516 2.147,-1.036c4.074,-3.534 1.826,-6.236 9.818,-13.488c1.173,-1.065 3.263,-5.829 15.279,-17.838c10.086,-10.08 10.976,-10.508 12.162,-11.079c8.804,-4.235 9.503,-8.278 19.711,-10.717c9.386,-2.243 8.305,-5.28 16.717,-6.399c1.078,-0.144 2.174,-0.133 3.253,-0.271c5.27,-0.676 4.742,-2.435 9.976,-3.17c8.939,-1.255 9.046,-0.938 17.175,-4.829c1.778,-0.851 32.932,-6.823 32.996,-6.844c11.211,-3.59 10.994,-4.378 22.789,-5.274c8.565,-0.65 8.145,-2.826 16.645,-3.219c1.059,-0.049 1.041,-0.002 13.251,-0.433c8.386,-0.296 8.587,-2.411 13.177,-2.927c6.782,-0.762 6.708,-0.516 13.414,-2.227c4.629,-1.181 98.191,-2.585 129.377,-0.977c14.823,0.765 15.009,-1.531 29.461,1.94c9.831,2.362 10.097,0.514 19.908,3.19c11.328,3.09 11.694,0.571 23.17,3.463c4.251,1.071 14.781,1.711 16.899,2.327c1.045,0.304 0.973,0.493 12.923,4.265c10.098,3.187 12.099,1.273 30.347,8.628c14.708,5.928 17.91,2.965 26.742,9.714c5.355,4.092 8.095,0.873 19.992,9.861c6.029,4.554 8.764,1.259 19.818,10.053c3.861,3.072 11.808,6.672 12.881,7.159c5.469,2.478 3.651,5.054 13.279,9.923c4.184,2.116 3.244,3.307 7.227,5.677c0.828,0.493 1.99,0.321 2.735,0.931c0.623,0.51 0.489,1.6 1.055,2.173c0.599,0.605 1.689,0.553 2.263,1.18c1.617,1.765 0.95,2.161 2.726,3.902c2.985,2.927 6.934,3.477 7.786,5.168c0.409,0.811 0.22,1.948 0.87,2.583c1.79,1.75 2.669,0.287 4.294,2.249c4.534,5.474 5.438,4.513 9.909,9.958c0.608,0.74 5.208,6.341 7.796,9.084c4.89,5.182 3.385,6.493 7.303,9.057c4.478,2.931 4.777,2.55 5.685,4.453c0.509,1.067 0.839,0.847 7.94,12.462c1.589,2.599 5.27,6.514 5.769,7.045c5.344,5.684 5.923,11.049 10.147,16.486c6.298,8.107 6.427,12.468 9.838,16.688c3.4,4.206 2.169,4.748 4.105,9.815c2.959,7.747 2.633,7.895 7.455,14.632c1.872,2.615 2.315,10.782 2.699,11.882c0.464,1.331 1.353,2.485 1.839,3.808c0.385,1.05 1.177,12.251 4.648,19.355c4.01,8.208 1.594,8.817 4.258,17.482c3.602,11.716 1.289,12.347 6.546,23.343c1.792,3.748 2.287,12.351 4.881,15.788c0.436,0.577 1.607,0.587 2.604,3.73c1.94,6.112 1.274,9.923 13.098,14.175c8.528,3.067 15.449,-0.134 23.625,2.173c2.046,0.577 8.999,2.54 26.476,2.259c5.627,-0.091 4.914,-2.041 24.169,-21.053c0.404,-0.398 0.645,-0.078 5.449,-4.533c0.549,-0.509 0.655,-1.427 1.273,-1.849c1.932,-1.319 2.49,-0.428 6.152,-3.95c3.327,-3.201 2.954,-3.438 6.65,-6.307c5.098,-3.958 5.084,-3.892 5.752,-4.539c6.017,-5.822 7.222,-4.232 13.17,-10.053c1.738,-1.701 1.735,-1.574 3.442,-3.187c6.077,-5.742 7.139,-4.287 13.175,-10.04c4.371,-4.166 5.438,-2.734 9.449,-7.131c0.361,-0.395 3.694,-4.05 4.769,-4.693c0.635,-0.38 2.413,-0.454 6.58,-3.496c4.922,-3.594 3.928,-4.868 9.424,-7.448c1.069,-0.502 0.795,-0.914 12.537,-7.803c2.112,-1.239 7.753,-7.411 10.654,-8.807c7.547,-3.633 5.5,-6.526 13.207,-10.035c5.287,-2.407 8.133,-8.212 10.01,-9.85c1.826,-1.593 2.126,-1.1 3.834,-2.803c0.95,-0.947 1.833,-1.828 10.313,-13.22c3.382,-4.544 1.623,-5.829 9.684,-13.005c6.381,-5.681 5.139,-6.6 10.24,-13.509c15.038,-20.368 40.237,-41.53 44.688,-47.7c0.51,-0.707 0.358,-1.821 0.992,-2.419c0.673,-0.635 1.854,-0.425 2.601,-0.971c0.541,-0.396 0.548,-1.279 1.064,-1.707c0.703,-0.583 1.76,-0.624 2.458,-1.214c0.805,-0.68 0.048,-1.595 3.564,-3.045c5.41,-2.232 4.754,-3.086 7.614,-5.419c0.74,-0.603 1.214,0.166 9.971,-6.547c0.211,-0.161 9.577,-4.65 12.859,-6.945c7.937,-5.551 8.344,-4.741 16.568,-9.833c1.006,-0.623 1.32,0.244 13.229,-6.626c1.315,-0.759 5.418,-1.719 5.899,-1.831c9.156,-2.143 8.137,-4.97 16.681,-6.449c5.154,-0.892 5.048,-0.938 10.05,-2.746c8.568,-3.098 9.159,-0.086 19.829,-3.494c15.508,-4.955 15.817,-3.738 73.026,-4.785c8.622,-0.158 24.992,0.816 36.485,1.056c5.52,0.115 49.75,9.597 49.852,9.608c7.108,0.767 7.351,-0.22 13.654,3.016c3.522,1.808 23.338,6.817 26.142,7.302c6.403,1.107 7.416,3.404 16.671,6.399c21.117,6.834 20.529,8.184 23.519,9.63c11.28,5.454 11.819,3.914 12.721,4.509c0.57,0.376 0.421,1.384 0.952,1.813c0.318,0.257 5.769,3.394 6.273,3.685c2.604,1.499 3.033,0.436 5.463,2.137c0.511,0.357 0.587,1.146 1.082,1.524c0.722,0.551 1.776,0.578 2.458,1.178c1.8,1.585 1.309,1.894 3.171,3.489c0.024,0.02 7.101,4.61 12.753,10.366c5.07,5.164 3.309,6.49 8.607,11.274c6.945,6.271 4.759,7.877 9.556,13.84c4.732,5.883 3.031,6.703 9.771,23.432c2.428,6.025 3.604,5.38 4.571,6.824l-660.32,314.113c-0.44,-0.942 0.954,-0.77 0.549,-1.638c-0.468,-1.003 -1.147,0.066 -1.691,-0.807c-0.56,-0.899 -0.514,-2.055 -0.737,-3.09c-1.862,-8.664 -6.228,-9.414 -25.786,-8.778c-13.401,0.435 -14.783,7.308 -19.471,12.251c-8.231,8.68 -5.702,10.394 -13.221,19.826c-2.879,3.611 -12.572,28.816 -12.717,29.714c-0.851,5.263 -1.083,5.109 -2.819,10.221c-0.879,2.587 -1.052,14.035 -1.655,16.067c-0.379,1.277 -1.169,2.41 -1.522,3.694c-0.157,0.571 -1.497,35.602 0.598,43.111c2.661,9.538 1.413,9.608 1.369,19.549c-0.049,10.908 5.214,39.045 13.521,41.826c18.214,6.098 36.186,2.021 39.25,1.326c6.844,-1.552 10.952,3.069 16.964,0.758c3.752,-1.443 5.32,-9.963 5.497,-10.925c0.972,-5.283 2.036,-4.844 3.886,-9.843c5.668,-15.316 5.664,-15.29 5.838,-16.694c0.893,-7.212 -0.762,-7.823 3.714,-13.426c3.282,-4.108 2.356,-4.524 3.847,-9.606c4.39,-14.959 3.118,-15.22 3.564,-16.494c1.703,-4.864 7.032,-5.657 5.51,-43.11c-0.324,-7.974 -4.819,-13.784 -5.699,-16.658c-6.967,-22.746 -8.525,-22.12 -9.931,-26.531c-4.963,-15.572 -4.777,-15.762 -8.858,-20.742l660.32,-314.113l-1478.739,182.603c2.41,9.23 1.423,9.667 7.035,17.274c0.072,0.098 4.781,10.112 7.416,12.768c9.839,9.92 20.993,2.559 23.526,2.136c5.206,-0.868 5.619,0.099 9.718,-3.141c7.76,-6.134 9.534,-2.758 17.5,-8.48c9.436,-6.778 10.206,-5.009 12.07,-5.656c0.805,-0.279 4.913,-4.195 7.247,-5.24c8.267,-3.698 7.785,-4.584 16.269,-7.611c2.126,-0.759 6.657,-2.375 24.101,-14.662c17.647,-12.429 21,-12.421 20.963,-34.059c-0.02,-12.032 3.212,-20.624 -14.301,-34.045c-4.316,-3.308 -5.773,-2.999 -6.608,-3.489c-0.801,-0.47 -4.37,-4.265 -4.734,-4.652c-3.559,-3.784 -12.857,-4.673 -25.853,-10.542c-14.359,-6.485 -28.087,0.731 -30.231,1.859c-4.502,2.366 -6.262,-0.79 -23.696,13.186c-3.798,3.045 -5.048,1.71 -8.861,7.91c-1.766,2.872 -7.865,4.764 -13.126,13.395c-3.939,6.462 -10.728,7.123 -17.803,25.921c-2.489,6.612 -2.84,22.473 -0.632,37.128l1478.739,-182.603l-1150.55,92.835c-0.176,-10.828 2.542,-15.232 -8.317,-15.918c-2.309,-0.146 -10.111,0.311 -13.184,-0.683c-1.274,-0.412 -2.387,-1.254 -3.67,-1.636c-3.024,-0.899 -3.078,-0.915 -39.428,-0.498c-10.149,0.116 -9.824,2.685 -19.901,2.736c-2.198,0.011 -4.399,-0.109 -6.594,-0.004c-9.129,0.436 -10.935,2.443 -16.51,3.407c-2.201,0.38 -11.034,1.907 -25.809,10.667c-9.35,5.544 -10.8,16.568 -9.983,48.322c0.455,17.697 18.671,11.14 25.718,13.349c6.607,2.071 6.609,2.082 19.915,2.115c26.222,0.065 26.198,-0.304 33.142,-2.207c5.939,-1.627 50.124,1.841 61.989,-4.926c3.109,-1.773 2.606,-2.783 2.634,-54.723l1150.55,-92.835l-1101.459,392.335c15.82,-9.125 16.301,-18.882 14.326,-40.811c-0.825,-9.158 -2.992,-8.366 -5.471,-13.261c-2.714,-5.359 -2.708,-5.323 -6.968,-9.554c-5.371,-5.335 -15.403,-10.426 -15.805,-10.774c-1.833,-1.591 -1.34,-1.968 -3.148,-3.512c-14.839,-12.674 -26.925,2.27 -27.919,2.687c-0.466,0.196 -0.98,-0.707 -1.436,-0.488c-0.578,0.277 -0.459,1.285 -0.986,1.65c-0.807,0.559 -1.939,0.463 -2.785,0.962c-0.493,0.291 -0.597,1.04 -1.094,1.324c-0.651,0.371 -2.911,0.399 -6.585,3.797c-17.062,15.779 -17.6,15.724 -18.407,20.654c-1.517,9.267 -7.421,24.484 3.63,45.43c2.795,5.297 12.124,10.591 15.767,13.453c16.964,13.325 38.239,2.402 39.754,1.179c1.878,-1.516 1.347,-1.869 3.217,-3.507c0.688,-0.603 1.749,-0.627 2.481,-1.176c0.493,-0.369 0.548,-1.191 1.083,-1.496c1.953,-1.114 2.366,-0.292 6.619,-3.441c2.027,-1.501 1.848,-1.545 3.725,-3.115l1101.459,-392.335Z" style="fill:#cca97d;fill-opacity:1;"/><path d="M382.951,0l3.316,0c1.17,0.613 0.404,3.445 6.558,3.433c1.056,-0.002 13.143,-0.025 13.2,-0.045c1.525,-0.522 1.926,-2.866 3.451,-3.388l6.631,0c1.474,0.509 1.741,2.891 3.215,3.4c0.102,0.035 46.376,0.055 46.699,-0.057c1.444,-0.499 1.691,-2.844 3.135,-3.343l3.316,0c0.673,0.343 1.27,3.371 6.708,3.418c1.061,0.009 1.037,-0.021 13.269,0.018c6.314,0.02 5.271,-2.766 6.547,-3.436c1.572,0.612 2.199,2.762 3.77,3.374c0.721,0.281 0.957,-1.275 9.581,1.35c1,0.304 1.938,0.79 2.938,1.094c7.214,2.195 7.815,-0.222 23.478,5.823c5.256,2.028 4.132,3.733 10.002,6.539c3.226,1.542 6.755,6.234 6.89,6.365c4.307,4.2 5.721,2.956 10.677,9.515c2.221,2.939 5.596,5.69 10.159,13.266c3.052,5.067 2.247,5.557 6.429,9.774c3.322,3.349 2.133,4.069 4.75,8.016c1.356,2.045 1.498,1.837 2.94,3.792c10.098,13.686 5.246,44.984 3.531,48.355c-3.185,6.263 -3.352,6.132 -4.789,13.873c-1.05,5.655 -9.019,22.886 -9.933,26.606c-1.265,5.152 -1.971,4.809 -4.146,9.707c-2.321,5.226 -4.906,3.475 -9.846,13.329c-1.402,2.797 -20.795,22.047 -23.216,23.293c-0.818,0.421 -1.742,0.647 -2.501,1.167c-2.75,1.887 -1.689,4.023 -16.799,13.112c-7.118,4.282 -6.703,4.701 -13.397,9.664c-5.134,3.806 -5.456,3.139 -16.477,10.158c-13.258,8.444 -9.007,18.044 -8.946,55.258c0.02,11.921 -0.034,12.155 6.068,22.446c2.344,3.953 10.323,8.029 14.902,11.564c5.545,4.28 4.441,5.552 10.628,8.921c5.309,2.89 4.164,5.573 13.191,10.053c0.844,0.419 1.978,0.981 8.885,7.733c1.824,1.783 0.777,2.41 2.507,4.145c0.572,0.574 1.587,0.559 2.143,1.148c0.601,0.637 0.597,1.687 1.163,2.355c0.484,0.571 1.413,0.646 1.876,1.234c0.584,0.741 0.646,1.786 1.139,2.59c0.595,0.971 4.054,4.646 4.421,5.037c6.458,6.861 11.273,19.933 12.152,21.706c1.44,2.904 4.171,8.41 3.447,40.369c-0.554,24.463 0.056,24.458 -0.087,26.58c-0.914,13.589 -1.357,13.662 -3.968,16.861c-2.538,3.109 -6.647,11.841 -7.15,12.909c-2.569,5.46 -4.051,4.435 -6.62,9.957c-1.194,2.565 -16.343,18.125 -19.88,19.965c-12.497,6.503 -9.888,10.035 -22.644,17.574c-11.116,6.57 -10.941,6.727 -21.089,14.594c-2.226,1.725 -2.757,0.681 -4.943,2.437c-0.553,0.444 -0.518,1.403 -1.084,1.83c-1.875,1.413 -2.051,0.977 -3.916,2.349c-0.817,0.6 -7.993,4.951 -8.692,5.375c-0.149,0.09 -4.866,4.378 -7.232,5.614c-6.253,3.265 -4.927,4.58 -6.662,6.532c-0.549,0.617 -1.57,0.642 -2.151,1.23c-0.569,0.575 -0.556,1.597 -1.167,2.126c-1.865,1.613 -2.173,1.067 -3.853,2.756c-1.719,1.729 -1.149,2.087 -2.711,3.88c-0.545,0.625 -1.61,0.579 -2.198,1.164c-0.584,0.58 -0.543,1.637 -1.164,2.176c-1.858,1.613 -2.19,0.992 -3.901,2.698c-2.659,2.651 -1.616,3.297 -4,6.102c-3.121,3.672 -3.55,3.216 -6.326,7.113c-7.735,10.858 -9.379,15.333 -9.917,16.798c-2.972,8.09 -1.453,8.45 -1.751,295.411c-0.026,24.982 1.014,25.281 -3.64,36.657c-1.702,4.16 -6.511,16.739 -8.158,18.784c-2.555,3.172 -3.249,2.66 -5.384,7.628c-0.815,1.897 -1.351,3.143 -17.652,18.83c-4.336,4.172 -5.187,2.973 -9.495,7.09c-6.074,5.804 -6.339,5.395 -11.842,8.585c-1.677,0.972 -5.297,6.793 -10.82,8.614c-5.555,1.831 -5.61,1.365 -6.08,1.539c-9.955,3.673 -10.239,2.364 -20.488,4.989c-4.631,1.186 -117.284,1.326 -122.655,-0.039c-17.145,-4.358 -18.162,0.061 -26.064,-4.223c-12.959,-7.026 -15.018,-8.942 -16.128,-9.976c-5.188,-4.828 -6.045,-3.626 -11.241,-8.558c-6.086,-5.778 -5.823,-5.948 -12.272,-11.255c-2.709,-2.23 -2.583,-2.236 -4.782,-5.087c-0.548,-0.71 -7.595,-7.382 -9.102,-10.581c-2.632,-5.585 -4.11,-4.557 -6.686,-9.913c-6.733,-14 -8.77,-12.784 -9.895,-16.61c-3.151,-10.726 0.649,-311.101 -2.355,-321.918c-3.101,-11.164 -2.15,-11.302 -2.553,-12.215c-0.971,-2.199 -4.428,-2.811 -5.711,-7.102c-3.872,-12.951 -10.166,-15.229 -12.667,-20.114c-3.409,-6.657 -4.857,-5.384 -6.259,-6.946c-0.615,-0.685 -0.569,-1.788 -1.121,-2.525c-1.42,-1.896 -1.81,-1.56 -2.652,-3.752c-2.192,-5.708 -3.966,-4.583 -6.521,-10.006c-2.625,-5.57 -25.906,-43.905 -27.534,-45.427c-5.153,-4.817 -3.924,-5.682 -8.061,-11.488c-4.888,-6.86 -3.965,-7.422 -9.768,-13.679c-1.192,-1.285 -5.909,-6.373 -11.308,-18.767c-2.492,-5.721 -3.429,-5.07 -4.615,-6.824l0,-26.525c0.517,-1.529 2.823,-1.976 3.34,-3.505c0.092,-0.272 0.056,-30.435 0.053,-33.082c-0.007,-6.057 -2.8,-5.377 -3.393,-6.516l-0,-6.631c0.832,-1.604 2.852,-2.372 3.684,-3.976c0.23,-0.443 -0.635,-4.896 2.122,-8.772c4.421,-6.216 3.23,-8.669 10.102,-16.181c3.224,-3.524 3.315,-3.439 4.909,-7.847c1.891,-5.228 4.705,-3.555 10.621,-16.311c1.411,-3.043 5.189,-6.039 6.058,-7.087c1.925,-2.321 1.247,-2.695 8.137,-12.22c3.111,-4.301 4.574,-10.406 10.083,-16.185c2.638,-2.768 3.162,-2.36 5.538,-7.625c1.535,-3.4 5.945,-6.732 6.201,-7.025c3.308,-3.798 1.74,-4.72 4.93,-8.565c2.107,-2.539 14.404,-12.232 18.698,-20.891c1.265,-2.551 5.286,-6.81 5.57,-7.271c4.529,-7.345 7.414,-10.797 11.033,-19.229c2.172,-5.059 3.742,-4.297 4.952,-9.622c5.624,-24.751 15.83,-51.888 16.217,-52.426c1.436,-1.994 1.644,-1.719 2.956,-3.812c0.121,-0.193 4.876,-13.362 6.963,-16.078c5.155,-6.704 5.171,-6.603 8.663,-14.24c2.709,-5.924 5.17,-4.172 9.913,-13.287c1.312,-2.522 5.256,-6.875 5.545,-7.337c6.674,-10.672 9.761,-11.653 13.537,-16.512c3.737,-4.809 4.737,-3.925 7.522,-9.267c2.003,-3.842 5.909,-3.733 9.402,-7.191c3.441,-3.406 2.743,-4.004 6.494,-6.978c5.748,-4.557 6.764,-9.245 13.951,-12.394c6.854,-3.003 8.852,-7.705 13.239,-9.979c1.581,-0.819 1.196,-1.446 19.151,-11.349c1.356,-0.748 1.043,-1.237 16.649,-9.878c3.984,-2.206 2.977,-4.009 10.436,-5.989c9.524,-2.528 16.432,-7.022 17.733,-7.868c1.932,-1.257 36.766,-11.615 38.809,-11.862c8.427,-1.016 8.432,-0.496 16.587,-2.883c6.266,-1.834 13.908,-0.333 20.239,-2.332c2.516,-0.795 3.057,-1.835 9.607,-2.117c6.115,-0.263 5.581,-3.025 6.697,-3.63Z" style="fill:#cca97d;fill-opacity:1;"/><path d="M1344.474,1429.018l-102.783,0c1.481,-0.512 1.715,-2.934 3.195,-3.446c3.263,-1.128 3.375,0.205 43.153,0.035c4.257,-0.018 52.813,-0.227 53.215,-0.017c1.39,0.725 1.83,2.704 3.22,3.428Z" style="fill:#c9ad88;fill-opacity:0.58;"/><path d="M416.107,0l53.05,0c-1.444,0.499 -1.691,2.844 -3.135,3.343c-0.323,0.112 -46.598,0.092 -46.699,0.057c-1.474,-0.509 -1.741,-2.891 -3.215,-3.4Z" style="fill:#cbae89;fill-opacity:0.81;"/><path d="M0,445.947l0,-43.103c0.593,1.14 3.386,0.46 3.393,6.516c0.003,2.647 0.039,32.81 -0.053,33.082c-0.517,1.529 -2.823,1.976 -3.34,3.505Z" style="fill:#c9ac86;fill-opacity:0.85;"/><path d="M472.472,0l26.525,0c-1.277,0.67 -0.234,3.456 -6.547,3.436c-12.232,-0.04 -12.207,-0.009 -13.269,-0.018c-5.438,-0.047 -6.035,-3.075 -6.708,-3.418Z" style="fill:#c7ad8a;fill-opacity:0.41;"/><path d="M386.267,0l23.209,0c-1.525,0.522 -1.926,2.866 -3.451,3.388c-0.057,0.02 -12.144,0.043 -13.2,0.045c-6.154,0.012 -5.387,-2.82 -6.558,-3.433Z" style="fill:#c8ae8c;fill-opacity:0.4;"/><path d="M3395.166,379.636l0,16.578c-0.71,-1.363 -3.347,-0.122 -3.371,-6.466c-0.009,-2.286 -0.767,-4.689 -0.045,-6.858c0.497,-1.492 2.918,-1.763 3.415,-3.254Z" style="fill:#c7aa85;fill-opacity:0.49;"/></g></svg>